<?xml version="1.0" encoding="UTF-8"?>
<svg xmlns="http://www.w3.org/2000/svg" width="3112" height="2622" viewBox="0 0 3112 2622">
<defs><marker id="arw" markerWidth="9" markerHeight="9" refX="8.2" refY="3.2" orient="auto"><polygon points="0 0, 9 3.2, 0 6.4" fill="#43535f"/></marker></defs>
<rect width="100%" height="100%" fill="#ffffff"/>
<text x="40.0" y="51.4" text-anchor="start" font-family="Segoe UI, Arial, sans-serif" font-size="25.0" font-weight="bold" fill="#16232e">Processo de Atendimento de Demandas de Arquitetura</text>
<text x="40.0" y="73.4" text-anchor="start" font-family="Segoe UI, Arial, sans-serif" font-size="13.0" font-weight="normal" fill="#5b6b78">Da solicitação da área de negócio até a publicação da solução pelo arquiteto — BPMN 2.0</text>
<text x="40.0" y="92.9" text-anchor="start" font-family="Segoe UI, Arial, sans-serif" font-size="12.0" font-weight="normal" fill="#5b6b78">O fluxo é contínuo: as faixas são recortes de leitura do mesmo traçado, costurados pelos eventos de link A e B.</text>
<text x="40.0" y="121.9" text-anchor="start" font-family="Segoe UI, Arial, sans-serif" font-size="14.0" font-weight="bold" fill="#334a5c">Faixa 1 — Solicitação e triagem da demanda</text>
<rect x="40" y="132" width="2280" height="760" fill="none" stroke="#6f8494" stroke-width="2"/>
<rect x="40" y="132" width="30" height="760" fill="#eef2f6" stroke="#6f8494" stroke-width="2"/>
<text transform="translate(59,512) rotate(-90)" text-anchor="middle" font-family="Segoe UI, Arial, sans-serif" font-size="11.5" font-weight="bold" fill="#33454f">Processo de Atendimento de Demandas de Arquitetura</text>
<rect x="70" y="702" width="2250" height="190" fill="none" stroke="#6f8494" stroke-width="1.1"/>
<rect x="70" y="702" width="34" height="190" fill="#eef2f6" stroke="#6f8494" stroke-width="1.1"/>
<text transform="translate(81.0,797) rotate(-90)" text-anchor="middle" font-family="Segoe UI, Arial, sans-serif" font-size="10.5" font-weight="bold" fill="#33454f">Time de Execução /</text>
<text transform="translate(93.0,797) rotate(-90)" text-anchor="middle" font-family="Segoe UI, Arial, sans-serif" font-size="10.5" font-weight="bold" fill="#33454f">Sustentação</text>
<rect x="70" y="512" width="2250" height="190" fill="none" stroke="#6f8494" stroke-width="1.1"/>
<rect x="70" y="512" width="34" height="190" fill="#eef2f6" stroke="#6f8494" stroke-width="1.1"/>
<text transform="translate(81.0,607) rotate(-90)" text-anchor="middle" font-family="Segoe UI, Arial, sans-serif" font-size="10.5" font-weight="bold" fill="#33454f">Arquiteto de</text>
<text transform="translate(93.0,607) rotate(-90)" text-anchor="middle" font-family="Segoe UI, Arial, sans-serif" font-size="10.5" font-weight="bold" fill="#33454f">Soluções</text>
<rect x="70" y="322" width="2250" height="190" fill="none" stroke="#6f8494" stroke-width="1.1"/>
<rect x="70" y="322" width="34" height="190" fill="#eef2f6" stroke="#6f8494" stroke-width="1.1"/>
<text transform="translate(81.0,417) rotate(-90)" text-anchor="middle" font-family="Segoe UI, Arial, sans-serif" font-size="10.5" font-weight="bold" fill="#33454f">Escritório de</text>
<text transform="translate(93.0,417) rotate(-90)" text-anchor="middle" font-family="Segoe UI, Arial, sans-serif" font-size="10.5" font-weight="bold" fill="#33454f">Arquitetura</text>
<rect x="70" y="132" width="2250" height="190" fill="none" stroke="#6f8494" stroke-width="1.1"/>
<rect x="70" y="132" width="34" height="190" fill="#eef2f6" stroke="#6f8494" stroke-width="1.1"/>
<text transform="translate(87.0,227) rotate(-90)" text-anchor="middle" font-family="Segoe UI, Arial, sans-serif" font-size="10.5" font-weight="bold" fill="#33454f">Área de Negócio</text>
<text x="40.0" y="959.9" text-anchor="start" font-family="Segoe UI, Arial, sans-serif" font-size="14.0" font-weight="bold" fill="#334a5c">Faixa 2 — Alocação por skill e desenho da solução</text>
<rect x="40" y="970" width="2428" height="760" fill="none" stroke="#6f8494" stroke-width="2"/>
<rect x="40" y="970" width="30" height="760" fill="#eef2f6" stroke="#6f8494" stroke-width="2"/>
<text transform="translate(59,1350) rotate(-90)" text-anchor="middle" font-family="Segoe UI, Arial, sans-serif" font-size="11.5" font-weight="bold" fill="#33454f">Processo de Atendimento de Demandas de Arquitetura</text>
<rect x="70" y="1540" width="2398" height="190" fill="none" stroke="#6f8494" stroke-width="1.1"/>
<rect x="70" y="1540" width="34" height="190" fill="#eef2f6" stroke="#6f8494" stroke-width="1.1"/>
<text transform="translate(81.0,1635) rotate(-90)" text-anchor="middle" font-family="Segoe UI, Arial, sans-serif" font-size="10.5" font-weight="bold" fill="#33454f">Time de Execução /</text>
<text transform="translate(93.0,1635) rotate(-90)" text-anchor="middle" font-family="Segoe UI, Arial, sans-serif" font-size="10.5" font-weight="bold" fill="#33454f">Sustentação</text>
<rect x="70" y="1350" width="2398" height="190" fill="none" stroke="#6f8494" stroke-width="1.1"/>
<rect x="70" y="1350" width="34" height="190" fill="#eef2f6" stroke="#6f8494" stroke-width="1.1"/>
<text transform="translate(81.0,1445) rotate(-90)" text-anchor="middle" font-family="Segoe UI, Arial, sans-serif" font-size="10.5" font-weight="bold" fill="#33454f">Arquiteto de</text>
<text transform="translate(93.0,1445) rotate(-90)" text-anchor="middle" font-family="Segoe UI, Arial, sans-serif" font-size="10.5" font-weight="bold" fill="#33454f">Soluções</text>
<rect x="70" y="1160" width="2398" height="190" fill="none" stroke="#6f8494" stroke-width="1.1"/>
<rect x="70" y="1160" width="34" height="190" fill="#eef2f6" stroke="#6f8494" stroke-width="1.1"/>
<text transform="translate(81.0,1255) rotate(-90)" text-anchor="middle" font-family="Segoe UI, Arial, sans-serif" font-size="10.5" font-weight="bold" fill="#33454f">Escritório de</text>
<text transform="translate(93.0,1255) rotate(-90)" text-anchor="middle" font-family="Segoe UI, Arial, sans-serif" font-size="10.5" font-weight="bold" fill="#33454f">Arquitetura</text>
<rect x="70" y="970" width="2398" height="190" fill="none" stroke="#6f8494" stroke-width="1.1"/>
<rect x="70" y="970" width="34" height="190" fill="#eef2f6" stroke="#6f8494" stroke-width="1.1"/>
<text transform="translate(87.0,1065) rotate(-90)" text-anchor="middle" font-family="Segoe UI, Arial, sans-serif" font-size="10.5" font-weight="bold" fill="#33454f">Área de Negócio</text>
<text x="40.0" y="1797.9" text-anchor="start" font-family="Segoe UI, Arial, sans-serif" font-size="14.0" font-weight="bold" fill="#334a5c">Faixa 3 — Execução, publicação e encerramento</text>
<rect x="40" y="1808" width="3032" height="760" fill="none" stroke="#6f8494" stroke-width="2"/>
<rect x="40" y="1808" width="30" height="760" fill="#eef2f6" stroke="#6f8494" stroke-width="2"/>
<text transform="translate(59,2188) rotate(-90)" text-anchor="middle" font-family="Segoe UI, Arial, sans-serif" font-size="11.5" font-weight="bold" fill="#33454f">Processo de Atendimento de Demandas de Arquitetura</text>
<rect x="70" y="2378" width="3002" height="190" fill="none" stroke="#6f8494" stroke-width="1.1"/>
<rect x="70" y="2378" width="34" height="190" fill="#eef2f6" stroke="#6f8494" stroke-width="1.1"/>
<text transform="translate(81.0,2473) rotate(-90)" text-anchor="middle" font-family="Segoe UI, Arial, sans-serif" font-size="10.5" font-weight="bold" fill="#33454f">Time de Execução /</text>
<text transform="translate(93.0,2473) rotate(-90)" text-anchor="middle" font-family="Segoe UI, Arial, sans-serif" font-size="10.5" font-weight="bold" fill="#33454f">Sustentação</text>
<rect x="70" y="2188" width="3002" height="190" fill="none" stroke="#6f8494" stroke-width="1.1"/>
<rect x="70" y="2188" width="34" height="190" fill="#eef2f6" stroke="#6f8494" stroke-width="1.1"/>
<text transform="translate(81.0,2283) rotate(-90)" text-anchor="middle" font-family="Segoe UI, Arial, sans-serif" font-size="10.5" font-weight="bold" fill="#33454f">Arquiteto de</text>
<text transform="translate(93.0,2283) rotate(-90)" text-anchor="middle" font-family="Segoe UI, Arial, sans-serif" font-size="10.5" font-weight="bold" fill="#33454f">Soluções</text>
<rect x="70" y="1998" width="3002" height="190" fill="none" stroke="#6f8494" stroke-width="1.1"/>
<rect x="70" y="1998" width="34" height="190" fill="#eef2f6" stroke="#6f8494" stroke-width="1.1"/>
<text transform="translate(81.0,2093) rotate(-90)" text-anchor="middle" font-family="Segoe UI, Arial, sans-serif" font-size="10.5" font-weight="bold" fill="#33454f">Escritório de</text>
<text transform="translate(93.0,2093) rotate(-90)" text-anchor="middle" font-family="Segoe UI, Arial, sans-serif" font-size="10.5" font-weight="bold" fill="#33454f">Arquitetura</text>
<rect x="70" y="1808" width="3002" height="190" fill="none" stroke="#6f8494" stroke-width="1.1"/>
<rect x="70" y="1808" width="34" height="190" fill="#eef2f6" stroke="#6f8494" stroke-width="1.1"/>
<text transform="translate(87.0,1903) rotate(-90)" text-anchor="middle" font-family="Segoe UI, Arial, sans-serif" font-size="10.5" font-weight="bold" fill="#33454f">Área de Negócio</text>
<path d="M 200.0 227.0 L 302.0 227.0" fill="none" stroke="#43535f" stroke-width="1.5" marker-end="url(#arw)"/>
<path d="M 442.0 227.0 L 492.0 227.0" fill="none" stroke="#43535f" stroke-width="1.5" marker-end="url(#arw)"/>
<path d="M 632.0 227.0 L 657.0 227.0 L 657.0 417.0 L 682.0 417.0" fill="none" stroke="#43535f" stroke-width="1.5" marker-end="url(#arw)"/>
<path d="M 1132.0 187.0 L 1132.0 162.0 L 752.0 162.0 L 752.0 377.0" fill="none" stroke="#43535f" stroke-width="1.5" marker-end="url(#arw)"/>
<rect x="834.6" y="144.1" width="54.8" height="15.8" rx="3" fill="#ffffff" fill-opacity="0.94"/>
<text x="862.0" y="156.7" text-anchor="middle" font-family="Segoe UI, Arial, sans-serif" font-size="9.5" font-weight="normal" fill="#2f3d47">reenviar</text>
<path d="M 822.0 417.0 L 917.0 417.0" fill="none" stroke="#43535f" stroke-width="1.5" marker-end="url(#arw)"/>
<path d="M 942.0 392.0 L 942.0 227.0 L 1062.0 227.0" fill="none" stroke="#43535f" stroke-width="1.5" marker-end="url(#arw)"/>
<rect x="908.1" y="364.1" width="26.8" height="15.8" rx="3" fill="#ffffff" fill-opacity="0.94"/>
<text x="921.5" y="376.6" text-anchor="middle" font-family="Segoe UI, Arial, sans-serif" font-size="9.5" font-weight="normal" fill="#2f3d47">Não</text>
<path d="M 967.0 417.0 L 1252.0 417.0" fill="none" stroke="#43535f" stroke-width="1.5" marker-end="url(#arw)"/>
<rect x="978.1" y="424.1" width="26.8" height="15.8" rx="3" fill="#ffffff" fill-opacity="0.94"/>
<text x="991.5" y="436.6" text-anchor="middle" font-family="Segoe UI, Arial, sans-serif" font-size="9.5" font-weight="normal" fill="#2f3d47">Sim</text>
<path d="M 1392.0 417.0 L 1487.0 417.0" fill="none" stroke="#43535f" stroke-width="1.5" marker-end="url(#arw)"/>
<path d="M 1537.0 417.0 L 1632.0 417.0" fill="none" stroke="#43535f" stroke-width="1.5" marker-end="url(#arw)"/>
<rect x="1548.1" y="392.1" width="26.8" height="15.8" rx="3" fill="#ffffff" fill-opacity="0.94"/>
<text x="1561.5" y="404.6" text-anchor="middle" font-family="Segoe UI, Arial, sans-serif" font-size="9.5" font-weight="normal" fill="#2f3d47">Não</text>
<path d="M 1512.0 442.0 L 1512.0 492.0 L 2082.0 492.0 L 2082.0 457.0" fill="none" stroke="#43535f" stroke-width="1.5" marker-end="url(#arw)"/>
<rect x="1528.1" y="451.1" width="26.8" height="15.8" rx="3" fill="#ffffff" fill-opacity="0.94"/>
<text x="1541.5" y="463.6" text-anchor="middle" font-family="Segoe UI, Arial, sans-serif" font-size="9.5" font-weight="normal" fill="#2f3d47">Sim</text>
<path d="M 1772.0 417.0 L 1874.0 417.0" fill="none" stroke="#43535f" stroke-width="1.5" marker-end="url(#arw)"/>
<path d="M 2152.0 417.0 L 2254.0 417.0" fill="none" stroke="#43535f" stroke-width="1.5" marker-end="url(#arw)"/>
<path d="M 158.0 1255.0 L 260.0 1255.0" fill="none" stroke="#43535f" stroke-width="1.5" marker-end="url(#arw)"/>
<path d="M 400.0 1255.0 L 450.0 1255.0" fill="none" stroke="#43535f" stroke-width="1.5" marker-end="url(#arw)"/>
<path d="M 900.0 1215.0 L 900.0 1180.0 L 520.0 1180.0 L 520.0 1215.0" fill="none" stroke="#43535f" stroke-width="1.5" marker-end="url(#arw)"/>
<rect x="772.6" y="1167.1" width="54.8" height="15.8" rx="3" fill="#ffffff" fill-opacity="0.94"/>
<text x="800.0" y="1179.7" text-anchor="middle" font-family="Segoe UI, Arial, sans-serif" font-size="9.5" font-weight="normal" fill="#2f3d47">realocar</text>
<path d="M 590.0 1255.0 L 685.0 1255.0" fill="none" stroke="#43535f" stroke-width="1.5" marker-end="url(#arw)"/>
<path d="M 735.0 1255.0 L 830.0 1255.0" fill="none" stroke="#43535f" stroke-width="1.5" marker-end="url(#arw)"/>
<rect x="746.1" y="1230.1" width="26.8" height="15.8" rx="3" fill="#ffffff" fill-opacity="0.94"/>
<text x="759.5" y="1242.7" text-anchor="middle" font-family="Segoe UI, Arial, sans-serif" font-size="9.5" font-weight="normal" fill="#2f3d47">Não</text>
<path d="M 710.0 1280.0 L 710.0 1325.0 L 1090.0 1325.0 L 1090.0 1405.0" fill="none" stroke="#43535f" stroke-width="1.5" marker-end="url(#arw)"/>
<rect x="716.1" y="1282.1" width="26.8" height="15.8" rx="3" fill="#ffffff" fill-opacity="0.94"/>
<text x="729.5" y="1294.7" text-anchor="middle" font-family="Segoe UI, Arial, sans-serif" font-size="9.5" font-weight="normal" fill="#2f3d47">Sim</text>
<path d="M 1160.0 1445.0 L 1210.0 1445.0" fill="none" stroke="#43535f" stroke-width="1.5" marker-end="url(#arw)"/>
<path d="M 1350.0 1445.0 L 1400.0 1445.0" fill="none" stroke="#43535f" stroke-width="1.5" marker-end="url(#arw)"/>
<path d="M 2230.0 1040.0 L 2230.0 990.0 L 1470.0 990.0 L 1470.0 1405.0" fill="none" stroke="#43535f" stroke-width="1.5" marker-end="url(#arw)"/>
<rect x="2252.5" y="996.2" width="94.0" height="27.6" rx="3" fill="#ffffff" fill-opacity="0.94"/>
<text x="2299.5" y="1008.8" text-anchor="middle" font-family="Segoe UI, Arial, sans-serif" font-size="9.5" font-weight="normal" fill="#2f3d47">Não — revisar o</text>
<text x="2299.5" y="1020.5" text-anchor="middle" font-family="Segoe UI, Arial, sans-serif" font-size="9.5" font-weight="normal" fill="#2f3d47">desenho</text>
<path d="M 1540.0 1445.0 L 1590.0 1445.0" fill="none" stroke="#43535f" stroke-width="1.5" marker-end="url(#arw)"/>
<path d="M 1730.0 1445.0 L 1780.0 1445.0" fill="none" stroke="#43535f" stroke-width="1.5" marker-end="url(#arw)"/>
<path d="M 1920.0 1445.0 L 1945.0 1445.0 L 1945.0 1065.0 L 1970.0 1065.0" fill="none" stroke="#43535f" stroke-width="1.5" marker-end="url(#arw)"/>
<path d="M 2110.0 1065.0 L 2205.0 1065.0" fill="none" stroke="#43535f" stroke-width="1.5" marker-end="url(#arw)"/>
<path d="M 2255.0 1065.0 L 2328.0 1065.0 L 2328.0 1445.0 L 2402.0 1445.0" fill="none" stroke="#43535f" stroke-width="1.5" marker-end="url(#arw)"/>
<rect x="2276.1" y="1082.1" width="26.8" height="15.8" rx="3" fill="#ffffff" fill-opacity="0.94"/>
<text x="2289.5" y="1094.7" text-anchor="middle" font-family="Segoe UI, Arial, sans-serif" font-size="9.5" font-weight="normal" fill="#2f3d47">Sim</text>
<path d="M 158.0 2283.0 L 260.0 2283.0" fill="none" stroke="#43535f" stroke-width="1.5" marker-end="url(#arw)"/>
<path d="M 400.0 2283.0 L 425.0 2283.0 L 425.0 2473.0 L 450.0 2473.0" fill="none" stroke="#43535f" stroke-width="1.5" marker-end="url(#arw)"/>
<path d="M 590.0 2473.0 L 640.0 2473.0" fill="none" stroke="#43535f" stroke-width="1.5" marker-end="url(#arw)"/>
<path d="M 1280.0 2498.0 L 1280.0 2553.0 L 686.0 2553.0 L 686.0 2513.0" fill="none" stroke="#43535f" stroke-width="1.5" marker-end="url(#arw)"/>
<rect x="1195.3" y="2505.1" width="88.4" height="15.8" rx="3" fill="#ffffff" fill-opacity="0.94"/>
<text x="1239.5" y="2517.7" text-anchor="middle" font-family="Segoe UI, Arial, sans-serif" font-size="9.5" font-weight="normal" fill="#2f3d47">Não — corrigir</text>
<path d="M 2420.0 1878.0 L 2420.0 1843.0 L 734.0 1843.0 L 734.0 2433.0" fill="none" stroke="#43535f" stroke-width="1.5" marker-end="url(#arw)"/>
<rect x="2418.1" y="1857.1" width="82.8" height="15.8" rx="3" fill="#ffffff" fill-opacity="0.94"/>
<text x="2459.5" y="1869.7" text-anchor="middle" font-family="Segoe UI, Arial, sans-serif" font-size="9.5" font-weight="normal" fill="#2f3d47">Não — ajustar</text>
<path d="M 780.0 2473.0 L 805.0 2473.0 L 805.0 2283.0 L 830.0 2283.0" fill="none" stroke="#43535f" stroke-width="1.5" marker-end="url(#arw)"/>
<path d="M 970.0 2283.0 L 995.0 2283.0 L 995.0 2473.0 L 1020.0 2473.0" fill="none" stroke="#43535f" stroke-width="1.5" marker-end="url(#arw)"/>
<path d="M 1160.0 2473.0 L 1255.0 2473.0" fill="none" stroke="#43535f" stroke-width="1.5" marker-end="url(#arw)"/>
<path d="M 1305.0 2473.0 L 1400.0 2473.0" fill="none" stroke="#43535f" stroke-width="1.5" marker-end="url(#arw)"/>
<rect x="1456.1" y="2448.1" width="26.8" height="15.8" rx="3" fill="#ffffff" fill-opacity="0.94"/>
<text x="1469.5" y="2460.7" text-anchor="middle" font-family="Segoe UI, Arial, sans-serif" font-size="9.5" font-weight="normal" fill="#2f3d47">Sim</text>
<path d="M 1540.0 2473.0 L 1565.0 2473.0 L 1565.0 2283.0 L 1590.0 2283.0" fill="none" stroke="#43535f" stroke-width="1.5" marker-end="url(#arw)"/>
<path d="M 1730.0 2283.0 L 1780.0 2283.0" fill="none" stroke="#43535f" stroke-width="1.5" marker-end="url(#arw)"/>
<path d="M 1920.0 2283.0 L 1945.0 2283.0 L 1945.0 2473.0 L 1970.0 2473.0" fill="none" stroke="#43535f" stroke-width="1.5" marker-end="url(#arw)"/>
<path d="M 2110.0 2473.0 L 2135.0 2473.0 L 2135.0 1903.0 L 2160.0 1903.0" fill="none" stroke="#43535f" stroke-width="1.5" marker-end="url(#arw)"/>
<path d="M 2300.0 1903.0 L 2395.0 1903.0" fill="none" stroke="#43535f" stroke-width="1.5" marker-end="url(#arw)"/>
<path d="M 2445.0 1903.0 L 2492.0 1903.0 L 2492.0 2283.0 L 2540.0 2283.0" fill="none" stroke="#43535f" stroke-width="1.5" marker-end="url(#arw)"/>
<rect x="2446.1" y="1905.1" width="26.8" height="15.8" rx="3" fill="#ffffff" fill-opacity="0.94"/>
<text x="2459.5" y="1917.7" text-anchor="middle" font-family="Segoe UI, Arial, sans-serif" font-size="9.5" font-weight="normal" fill="#2f3d47">Sim</text>
<path d="M 2680.0 2283.0 L 2705.0 2283.0 L 2705.0 2093.0 L 2730.0 2093.0" fill="none" stroke="#43535f" stroke-width="1.5" marker-end="url(#arw)"/>
<path d="M 2870.0 2093.0 L 2972.0 2093.0" fill="none" stroke="#43535f" stroke-width="1.5" marker-end="url(#arw)"/>
<circle cx="182.0" cy="227.0" r="18.0" fill="#e6f4e6" stroke="#3f8f3f" stroke-width="2"/>
<text x="182.5" y="180.2" text-anchor="middle" font-family="Segoe UI, Arial, sans-serif" font-size="10.0" font-weight="bold" fill="#33454f">Necessidade de</text>
<text x="182.5" y="192.4" text-anchor="middle" font-family="Segoe UI, Arial, sans-serif" font-size="10.0" font-weight="bold" fill="#33454f">negócio</text>
<text x="182.5" y="204.6" text-anchor="middle" font-family="Segoe UI, Arial, sans-serif" font-size="10.0" font-weight="bold" fill="#33454f">identificada</text>
<rect x="302.0" y="187.0" width="140.0" height="80.0" rx="7" fill="#ffffff" stroke="#41637d" stroke-width="1.5"/>
<path d="M 302.0 194.0 h 140.0 a 7 7 0 0 0 -7 -7 h -126.0 a 7 7 0 0 0 -7 7 z" fill="#dce8f1"/>
<circle cx="313.0" cy="195.0" r="2.4" fill="none" stroke="#33454f" stroke-width="1"/>
<path d="M 308.7 202.0 a 4.3 4.3 0 0 1 8.6 0" fill="none" stroke="#33454f" stroke-width="1"/>
<text x="372.0" y="222.7" text-anchor="middle" font-family="Segoe UI, Arial, sans-serif" font-size="10.0" font-weight="normal" fill="#1d2b36">Registrar a</text>
<text x="372.0" y="234.9" text-anchor="middle" font-family="Segoe UI, Arial, sans-serif" font-size="10.0" font-weight="normal" fill="#1d2b36">solicitação de</text>
<text x="372.0" y="247.1" text-anchor="middle" font-family="Segoe UI, Arial, sans-serif" font-size="10.0" font-weight="normal" fill="#1d2b36">demanda</text>
<rect x="492.0" y="187.0" width="140.0" height="80.0" rx="7" fill="#ffffff" stroke="#41637d" stroke-width="1.5"/>
<path d="M 492.0 194.0 h 140.0 a 7 7 0 0 0 -7 -7 h -126.0 a 7 7 0 0 0 -7 7 z" fill="#dce8f1"/>
<circle cx="503.0" cy="195.0" r="2.4" fill="none" stroke="#33454f" stroke-width="1"/>
<path d="M 498.7 202.0 a 4.3 4.3 0 0 1 8.6 0" fill="none" stroke="#33454f" stroke-width="1"/>
<text x="562.0" y="222.7" text-anchor="middle" font-family="Segoe UI, Arial, sans-serif" font-size="10.0" font-weight="normal" fill="#1d2b36">Detalhar requisitos,</text>
<text x="562.0" y="234.9" text-anchor="middle" font-family="Segoe UI, Arial, sans-serif" font-size="10.0" font-weight="normal" fill="#1d2b36">drivers e</text>
<text x="562.0" y="247.1" text-anchor="middle" font-family="Segoe UI, Arial, sans-serif" font-size="10.0" font-weight="normal" fill="#1d2b36">justificativa</text>
<rect x="682.0" y="377.0" width="140.0" height="80.0" rx="7" fill="#ffffff" stroke="#41637d" stroke-width="1.5"/>
<path d="M 682.0 384.0 h 140.0 a 7 7 0 0 0 -7 -7 h -126.0 a 7 7 0 0 0 -7 7 z" fill="#dce8f1"/>
<circle cx="693.0" cy="385.0" r="2.4" fill="none" stroke="#33454f" stroke-width="1"/>
<path d="M 688.7 392.0 a 4.3 4.3 0 0 1 8.6 0" fill="none" stroke="#33454f" stroke-width="1"/>
<text x="752.0" y="418.8" text-anchor="middle" font-family="Segoe UI, Arial, sans-serif" font-size="10.0" font-weight="normal" fill="#1d2b36">Receber e triar a</text>
<text x="752.0" y="431.0" text-anchor="middle" font-family="Segoe UI, Arial, sans-serif" font-size="10.0" font-weight="normal" fill="#1d2b36">demanda</text>
<polygon points="942.0,392.0 967.0,417.0 942.0,442.0 917.0,417.0" fill="#fdf3d4" stroke="#b99b2c" stroke-width="1.5"/>
<path d="M 934.0 409.0 L 950.0 425.0 M 950.0 409.0 L 934.0 425.0" stroke="#7a6512" stroke-width="2"/>
<text x="942.0" y="456.8" text-anchor="middle" font-family="Segoe UI, Arial, sans-serif" font-size="10.0" font-weight="bold" fill="#33454f">Informações</text>
<text x="942.0" y="469.0" text-anchor="middle" font-family="Segoe UI, Arial, sans-serif" font-size="10.0" font-weight="bold" fill="#33454f">suficientes?</text>
<rect x="1062.0" y="187.0" width="140.0" height="80.0" rx="7" fill="#ffffff" stroke="#41637d" stroke-width="1.5"/>
<path d="M 1062.0 194.0 h 140.0 a 7 7 0 0 0 -7 -7 h -126.0 a 7 7 0 0 0 -7 7 z" fill="#dce8f1"/>
<circle cx="1073.0" cy="195.0" r="2.4" fill="none" stroke="#33454f" stroke-width="1"/>
<path d="M 1068.7 202.0 a 4.3 4.3 0 0 1 8.6 0" fill="none" stroke="#33454f" stroke-width="1"/>
<text x="1132.0" y="228.8" text-anchor="middle" font-family="Segoe UI, Arial, sans-serif" font-size="10.0" font-weight="normal" fill="#1d2b36">Complementar a</text>
<text x="1132.0" y="241.0" text-anchor="middle" font-family="Segoe UI, Arial, sans-serif" font-size="10.0" font-weight="normal" fill="#1d2b36">solicitação</text>
<rect x="1252.0" y="377.0" width="140.0" height="80.0" rx="7" fill="#ffffff" stroke="#41637d" stroke-width="1.5"/>
<path d="M 1252.0 384.0 h 140.0 a 7 7 0 0 0 -7 -7 h -126.0 a 7 7 0 0 0 -7 7 z" fill="#dce8f1"/>
<circle cx="1263.0" cy="385.0" r="2.4" fill="none" stroke="#33454f" stroke-width="1"/>
<path d="M 1258.7 392.0 a 4.3 4.3 0 0 1 8.6 0" fill="none" stroke="#33454f" stroke-width="1"/>
<text x="1322.0" y="412.7" text-anchor="middle" font-family="Segoe UI, Arial, sans-serif" font-size="10.0" font-weight="normal" fill="#1d2b36">Avaliar aderência à</text>
<text x="1322.0" y="424.9" text-anchor="middle" font-family="Segoe UI, Arial, sans-serif" font-size="10.0" font-weight="normal" fill="#1d2b36">arquitetura de</text>
<text x="1322.0" y="437.1" text-anchor="middle" font-family="Segoe UI, Arial, sans-serif" font-size="10.0" font-weight="normal" fill="#1d2b36">referência</text>
<polygon points="1512.0,392.0 1537.0,417.0 1512.0,442.0 1487.0,417.0" fill="#fdf3d4" stroke="#b99b2c" stroke-width="1.5"/>
<path d="M 1504.0 409.0 L 1520.0 425.0 M 1520.0 409.0 L 1504.0 425.0" stroke="#7a6512" stroke-width="2"/>
<text x="1512.5" y="368.9" text-anchor="middle" font-family="Segoe UI, Arial, sans-serif" font-size="10.0" font-weight="bold" fill="#33454f">Demanda aprovada?</text>
<rect x="1632.0" y="377.0" width="140.0" height="80.0" rx="7" fill="#ffffff" stroke="#41637d" stroke-width="1.5"/>
<path d="M 1632.0 384.0 h 140.0 a 7 7 0 0 0 -7 -7 h -126.0 a 7 7 0 0 0 -7 7 z" fill="#dce8f1"/>
<circle cx="1643.0" cy="385.0" r="2.4" fill="none" stroke="#33454f" stroke-width="1"/>
<path d="M 1638.7 392.0 a 4.3 4.3 0 0 1 8.6 0" fill="none" stroke="#33454f" stroke-width="1"/>
<text x="1702.0" y="418.8" text-anchor="middle" font-family="Segoe UI, Arial, sans-serif" font-size="10.0" font-weight="normal" fill="#1d2b36">Registrar parecer e</text>
<text x="1702.0" y="431.0" text-anchor="middle" font-family="Segoe UI, Arial, sans-serif" font-size="10.0" font-weight="normal" fill="#1d2b36">comunicar a recusa</text>
<circle cx="1892.0" cy="417.0" r="18.0" fill="#fbe6e6" stroke="#b03535" stroke-width="3.5"/>
<text x="1892.5" y="369.8" text-anchor="middle" font-family="Segoe UI, Arial, sans-serif" font-size="10.0" font-weight="bold" fill="#33454f">Demanda não</text>
<text x="1892.5" y="382.0" text-anchor="middle" font-family="Segoe UI, Arial, sans-serif" font-size="10.0" font-weight="bold" fill="#33454f">aprovada</text>
<rect x="2012.0" y="377.0" width="140.0" height="80.0" rx="7" fill="#ffffff" stroke="#41637d" stroke-width="1.5"/>
<path d="M 2012.0 384.0 h 140.0 a 7 7 0 0 0 -7 -7 h -126.0 a 7 7 0 0 0 -7 7 z" fill="#dce8f1"/>
<circle cx="2023.0" cy="385.0" r="2.4" fill="none" stroke="#33454f" stroke-width="1"/>
<path d="M 2018.7 392.0 a 4.3 4.3 0 0 1 8.6 0" fill="none" stroke="#33454f" stroke-width="1"/>
<text x="2082.0" y="418.8" text-anchor="middle" font-family="Segoe UI, Arial, sans-serif" font-size="10.0" font-weight="normal" fill="#1d2b36">Priorizar a demanda</text>
<text x="2082.0" y="431.0" text-anchor="middle" font-family="Segoe UI, Arial, sans-serif" font-size="10.0" font-weight="normal" fill="#1d2b36">no portfólio</text>
<circle cx="2272.0" cy="417.0" r="18.0" fill="#eae6f6" stroke="#6a54a8" stroke-width="1.6"/>
<circle cx="2272.0" cy="417.0" r="15.0" fill="none" stroke="#6a54a8" stroke-width="1.2"/>
<path d="M 2266.0 415.5 h 7 v -3 l 5 4.5 l -5 4.5 v -3 h -7 z" fill="#6a54a8"/>
<text x="2272.0" y="384.4" text-anchor="middle" font-family="Segoe UI, Arial, sans-serif" font-size="13.0" font-weight="bold" fill="#6a54a8">A</text>
<text x="2272.0" y="446.8" text-anchor="middle" font-family="Segoe UI, Arial, sans-serif" font-size="9.0" font-weight="normal" fill="#5b6b78">continua na</text>
<text x="2272.0" y="458.0" text-anchor="middle" font-family="Segoe UI, Arial, sans-serif" font-size="9.0" font-weight="normal" fill="#5b6b78">faixa 2</text>
<circle cx="140.0" cy="1255.0" r="18.0" fill="#eae6f6" stroke="#6a54a8" stroke-width="1.6"/>
<circle cx="140.0" cy="1255.0" r="15.0" fill="none" stroke="#6a54a8" stroke-width="1.2"/>
<path d="M 134.0 1253.5 h 7 v -3 l 5 4.5 l -5 4.5 v -3 h -7 z" fill="#6a54a8"/>
<text x="140.0" y="1222.4" text-anchor="middle" font-family="Segoe UI, Arial, sans-serif" font-size="13.0" font-weight="bold" fill="#6a54a8">A</text>
<text x="140.0" y="1290.4" text-anchor="middle" font-family="Segoe UI, Arial, sans-serif" font-size="9.0" font-weight="normal" fill="#5b6b78">vem da faixa 1</text>
<rect x="260.0" y="1215.0" width="140.0" height="80.0" rx="7" fill="#ffffff" stroke="#41637d" stroke-width="1.5"/>
<path d="M 260.0 1222.0 h 140.0 a 7 7 0 0 0 -7 -7 h -126.0 a 7 7 0 0 0 -7 7 z" fill="#dce8f1"/>
<circle cx="271.0" cy="1223.0" r="2.4" fill="none" stroke="#33454f" stroke-width="1"/>
<path d="M 266.7 1230.0 a 4.3 4.3 0 0 1 8.6 0" fill="none" stroke="#33454f" stroke-width="1"/>
<text x="330.0" y="1256.8" text-anchor="middle" font-family="Segoe UI, Arial, sans-serif" font-size="10.0" font-weight="normal" fill="#1d2b36">Identificar as</text>
<text x="330.0" y="1269.0" text-anchor="middle" font-family="Segoe UI, Arial, sans-serif" font-size="10.0" font-weight="normal" fill="#1d2b36">skills necessárias</text>
<rect x="450.0" y="1215.0" width="140.0" height="80.0" rx="7" fill="#ffffff" stroke="#41637d" stroke-width="1.5"/>
<path d="M 450.0 1222.0 h 140.0 a 7 7 0 0 0 -7 -7 h -126.0 a 7 7 0 0 0 -7 7 z" fill="#dce8f1"/>
<circle cx="461.0" cy="1223.0" r="2.4" fill="none" stroke="#33454f" stroke-width="1"/>
<path d="M 456.7 1230.0 a 4.3 4.3 0 0 1 8.6 0" fill="none" stroke="#33454f" stroke-width="1"/>
<text x="520.0" y="1250.7" text-anchor="middle" font-family="Segoe UI, Arial, sans-serif" font-size="10.0" font-weight="normal" fill="#1d2b36">Atrelar a demanda ao</text>
<text x="520.0" y="1262.9" text-anchor="middle" font-family="Segoe UI, Arial, sans-serif" font-size="10.0" font-weight="normal" fill="#1d2b36">arquiteto com a</text>
<text x="520.0" y="1275.1" text-anchor="middle" font-family="Segoe UI, Arial, sans-serif" font-size="10.0" font-weight="normal" fill="#1d2b36">skill aderente</text>
<polygon points="710.0,1230.0 735.0,1255.0 710.0,1280.0 685.0,1255.0" fill="#fdf3d4" stroke="#b99b2c" stroke-width="1.5"/>
<path d="M 702.0 1247.0 L 718.0 1263.0 M 718.0 1247.0 L 702.0 1263.0" stroke="#7a6512" stroke-width="2"/>
<text x="710.5" y="1207.3" text-anchor="middle" font-family="Segoe UI, Arial, sans-serif" font-size="10.0" font-weight="bold" fill="#33454f">Arquiteto com a skill</text>
<text x="710.5" y="1219.5" text-anchor="middle" font-family="Segoe UI, Arial, sans-serif" font-size="10.0" font-weight="bold" fill="#33454f">disponível?</text>
<rect x="830.0" y="1215.0" width="140.0" height="80.0" rx="7" fill="#ffffff" stroke="#41637d" stroke-width="1.5"/>
<path d="M 830.0 1222.0 h 140.0 a 7 7 0 0 0 -7 -7 h -126.0 a 7 7 0 0 0 -7 7 z" fill="#dce8f1"/>
<circle cx="841.0" cy="1223.0" r="2.4" fill="none" stroke="#33454f" stroke-width="1"/>
<path d="M 836.7 1230.0 a 4.3 4.3 0 0 1 8.6 0" fill="none" stroke="#33454f" stroke-width="1"/>
<text x="900.0" y="1256.8" text-anchor="middle" font-family="Segoe UI, Arial, sans-serif" font-size="10.0" font-weight="normal" fill="#1d2b36">Acionar capacitação</text>
<text x="900.0" y="1269.0" text-anchor="middle" font-family="Segoe UI, Arial, sans-serif" font-size="10.0" font-weight="normal" fill="#1d2b36">ou parceiro externo</text>
<rect x="1020.0" y="1405.0" width="140.0" height="80.0" rx="7" fill="#ffffff" stroke="#41637d" stroke-width="1.5"/>
<path d="M 1020.0 1412.0 h 140.0 a 7 7 0 0 0 -7 -7 h -126.0 a 7 7 0 0 0 -7 7 z" fill="#dce8f1"/>
<circle cx="1031.0" cy="1413.0" r="2.4" fill="none" stroke="#33454f" stroke-width="1"/>
<path d="M 1026.7 1420.0 a 4.3 4.3 0 0 1 8.6 0" fill="none" stroke="#33454f" stroke-width="1"/>
<text x="1090.0" y="1446.8" text-anchor="middle" font-family="Segoe UI, Arial, sans-serif" font-size="10.0" font-weight="normal" fill="#1d2b36">Receber e aceitar a</text>
<text x="1090.0" y="1459.0" text-anchor="middle" font-family="Segoe UI, Arial, sans-serif" font-size="10.0" font-weight="normal" fill="#1d2b36">demanda</text>
<rect x="1210.0" y="1405.0" width="140.0" height="80.0" rx="7" fill="#ffffff" stroke="#41637d" stroke-width="1.5"/>
<path d="M 1210.0 1412.0 h 140.0 a 7 7 0 0 0 -7 -7 h -126.0 a 7 7 0 0 0 -7 7 z" fill="#dce8f1"/>
<circle cx="1221.0" cy="1413.0" r="2.4" fill="none" stroke="#33454f" stroke-width="1"/>
<path d="M 1216.7 1420.0 a 4.3 4.3 0 0 1 8.6 0" fill="none" stroke="#33454f" stroke-width="1"/>
<text x="1280.0" y="1440.7" text-anchor="middle" font-family="Segoe UI, Arial, sans-serif" font-size="10.0" font-weight="normal" fill="#1d2b36">Levantar requisitos</text>
<text x="1280.0" y="1452.9" text-anchor="middle" font-family="Segoe UI, Arial, sans-serif" font-size="10.0" font-weight="normal" fill="#1d2b36">técnicos e</text>
<text x="1280.0" y="1465.1" text-anchor="middle" font-family="Segoe UI, Arial, sans-serif" font-size="10.0" font-weight="normal" fill="#1d2b36">restrições</text>
<rect x="1400.0" y="1405.0" width="140.0" height="80.0" rx="7" fill="#ffffff" stroke="#41637d" stroke-width="1.5"/>
<path d="M 1400.0 1412.0 h 140.0 a 7 7 0 0 0 -7 -7 h -126.0 a 7 7 0 0 0 -7 7 z" fill="#dce8f1"/>
<circle cx="1411.0" cy="1413.0" r="2.4" fill="none" stroke="#33454f" stroke-width="1"/>
<path d="M 1406.7 1420.0 a 4.3 4.3 0 0 1 8.6 0" fill="none" stroke="#33454f" stroke-width="1"/>
<text x="1470.0" y="1440.7" text-anchor="middle" font-family="Segoe UI, Arial, sans-serif" font-size="10.0" font-weight="normal" fill="#1d2b36">Desenhar a solução</text>
<text x="1470.0" y="1452.9" text-anchor="middle" font-family="Segoe UI, Arial, sans-serif" font-size="10.0" font-weight="normal" fill="#1d2b36">(to-be, ADRs,</text>
<text x="1470.0" y="1465.1" text-anchor="middle" font-family="Segoe UI, Arial, sans-serif" font-size="10.0" font-weight="normal" fill="#1d2b36">diagramas)</text>
<rect x="1590.0" y="1405.0" width="140.0" height="80.0" rx="7" fill="#ffffff" stroke="#41637d" stroke-width="1.5"/>
<path d="M 1590.0 1412.0 h 140.0 a 7 7 0 0 0 -7 -7 h -126.0 a 7 7 0 0 0 -7 7 z" fill="#dce8f1"/>
<circle cx="1601.0" cy="1413.0" r="2.4" fill="none" stroke="#33454f" stroke-width="1"/>
<path d="M 1596.7 1420.0 a 4.3 4.3 0 0 1 8.6 0" fill="none" stroke="#33454f" stroke-width="1"/>
<text x="1660.0" y="1446.8" text-anchor="middle" font-family="Segoe UI, Arial, sans-serif" font-size="10.0" font-weight="normal" fill="#1d2b36">Estimar esforço,</text>
<text x="1660.0" y="1459.0" text-anchor="middle" font-family="Segoe UI, Arial, sans-serif" font-size="10.0" font-weight="normal" fill="#1d2b36">custos e riscos</text>
<rect x="1780.0" y="1405.0" width="140.0" height="80.0" rx="7" fill="#ffffff" stroke="#41637d" stroke-width="1.5"/>
<path d="M 1780.0 1412.0 h 140.0 a 7 7 0 0 0 -7 -7 h -126.0 a 7 7 0 0 0 -7 7 z" fill="#dce8f1"/>
<circle cx="1791.0" cy="1413.0" r="2.4" fill="none" stroke="#33454f" stroke-width="1"/>
<path d="M 1786.7 1420.0 a 4.3 4.3 0 0 1 8.6 0" fill="none" stroke="#33454f" stroke-width="1"/>
<text x="1850.0" y="1446.8" text-anchor="middle" font-family="Segoe UI, Arial, sans-serif" font-size="10.0" font-weight="normal" fill="#1d2b36">Submeter a solução</text>
<text x="1850.0" y="1459.0" text-anchor="middle" font-family="Segoe UI, Arial, sans-serif" font-size="10.0" font-weight="normal" fill="#1d2b36">para aprovação</text>
<rect x="1970.0" y="1025.0" width="140.0" height="80.0" rx="7" fill="#ffffff" stroke="#41637d" stroke-width="1.5"/>
<path d="M 1970.0 1032.0 h 140.0 a 7 7 0 0 0 -7 -7 h -126.0 a 7 7 0 0 0 -7 7 z" fill="#dce8f1"/>
<circle cx="1981.0" cy="1033.0" r="2.4" fill="none" stroke="#33454f" stroke-width="1"/>
<path d="M 1976.7 1040.0 a 4.3 4.3 0 0 1 8.6 0" fill="none" stroke="#33454f" stroke-width="1"/>
<text x="2040.0" y="1066.8" text-anchor="middle" font-family="Segoe UI, Arial, sans-serif" font-size="10.0" font-weight="normal" fill="#1d2b36">Avaliar a solução</text>
<text x="2040.0" y="1079.0" text-anchor="middle" font-family="Segoe UI, Arial, sans-serif" font-size="10.0" font-weight="normal" fill="#1d2b36">proposta</text>
<polygon points="2230.0,1040.0 2255.0,1065.0 2230.0,1090.0 2205.0,1065.0" fill="#fdf3d4" stroke="#b99b2c" stroke-width="1.5"/>
<path d="M 2222.0 1057.0 L 2238.0 1073.0 M 2238.0 1057.0 L 2222.0 1073.0" stroke="#7a6512" stroke-width="2"/>
<text x="2229.5" y="1110.9" text-anchor="middle" font-family="Segoe UI, Arial, sans-serif" font-size="10.0" font-weight="bold" fill="#33454f">Solução aprovada?</text>
<circle cx="2420.0" cy="1445.0" r="18.0" fill="#eae6f6" stroke="#6a54a8" stroke-width="1.6"/>
<circle cx="2420.0" cy="1445.0" r="15.0" fill="none" stroke="#6a54a8" stroke-width="1.2"/>
<path d="M 2414.0 1443.5 h 7 v -3 l 5 4.5 l -5 4.5 v -3 h -7 z" fill="#6a54a8"/>
<text x="2420.0" y="1412.4" text-anchor="middle" font-family="Segoe UI, Arial, sans-serif" font-size="13.0" font-weight="bold" fill="#6a54a8">B</text>
<text x="2420.0" y="1474.8" text-anchor="middle" font-family="Segoe UI, Arial, sans-serif" font-size="9.0" font-weight="normal" fill="#5b6b78">continua na</text>
<text x="2420.0" y="1486.0" text-anchor="middle" font-family="Segoe UI, Arial, sans-serif" font-size="9.0" font-weight="normal" fill="#5b6b78">faixa 3</text>
<circle cx="140.0" cy="2283.0" r="18.0" fill="#eae6f6" stroke="#6a54a8" stroke-width="1.6"/>
<circle cx="140.0" cy="2283.0" r="15.0" fill="none" stroke="#6a54a8" stroke-width="1.2"/>
<path d="M 134.0 2281.5 h 7 v -3 l 5 4.5 l -5 4.5 v -3 h -7 z" fill="#6a54a8"/>
<text x="140.0" y="2250.4" text-anchor="middle" font-family="Segoe UI, Arial, sans-serif" font-size="13.0" font-weight="bold" fill="#6a54a8">B</text>
<text x="140.0" y="2318.4" text-anchor="middle" font-family="Segoe UI, Arial, sans-serif" font-size="9.0" font-weight="normal" fill="#5b6b78">vem da faixa 2</text>
<rect x="260.0" y="2243.0" width="140.0" height="80.0" rx="7" fill="#ffffff" stroke="#41637d" stroke-width="1.5"/>
<path d="M 260.0 2250.0 h 140.0 a 7 7 0 0 0 -7 -7 h -126.0 a 7 7 0 0 0 -7 7 z" fill="#dce8f1"/>
<circle cx="271.0" cy="2251.0" r="2.4" fill="none" stroke="#33454f" stroke-width="1"/>
<path d="M 266.7 2258.0 a 4.3 4.3 0 0 1 8.6 0" fill="none" stroke="#33454f" stroke-width="1"/>
<text x="330.0" y="2284.8" text-anchor="middle" font-family="Segoe UI, Arial, sans-serif" font-size="10.0" font-weight="normal" fill="#1d2b36">Planejar a execução</text>
<text x="330.0" y="2297.0" text-anchor="middle" font-family="Segoe UI, Arial, sans-serif" font-size="10.0" font-weight="normal" fill="#1d2b36">e acionar o time</text>
<rect x="450.0" y="2433.0" width="140.0" height="80.0" rx="7" fill="#ffffff" stroke="#41637d" stroke-width="1.5"/>
<path d="M 450.0 2440.0 h 140.0 a 7 7 0 0 0 -7 -7 h -126.0 a 7 7 0 0 0 -7 7 z" fill="#dce8f1"/>
<circle cx="461.0" cy="2444.0" r="3.2" fill="none" stroke="#33454f" stroke-width="1"/>
<circle cx="461.0" cy="2444.0" r="1.1" fill="#33454f"/>
<line x1="461.0" y1="2439.6" x2="461.0" y2="2437.8" stroke="#33454f" stroke-width="1" transform="rotate(0 461.0 2444.0)"/>
<line x1="461.0" y1="2439.6" x2="461.0" y2="2437.8" stroke="#33454f" stroke-width="1" transform="rotate(90 461.0 2444.0)"/>
<line x1="461.0" y1="2439.6" x2="461.0" y2="2437.8" stroke="#33454f" stroke-width="1" transform="rotate(180 461.0 2444.0)"/>
<line x1="461.0" y1="2439.6" x2="461.0" y2="2437.8" stroke="#33454f" stroke-width="1" transform="rotate(270 461.0 2444.0)"/>
<text x="520.0" y="2468.7" text-anchor="middle" font-family="Segoe UI, Arial, sans-serif" font-size="10.0" font-weight="normal" fill="#1d2b36">Preparar ambientes e</text>
<text x="520.0" y="2480.9" text-anchor="middle" font-family="Segoe UI, Arial, sans-serif" font-size="10.0" font-weight="normal" fill="#1d2b36">provisionar</text>
<text x="520.0" y="2493.1" text-anchor="middle" font-family="Segoe UI, Arial, sans-serif" font-size="10.0" font-weight="normal" fill="#1d2b36">infraestrutura</text>
<rect x="640.0" y="2433.0" width="140.0" height="80.0" rx="7" fill="#ffffff" stroke="#41637d" stroke-width="1.5"/>
<path d="M 640.0 2440.0 h 140.0 a 7 7 0 0 0 -7 -7 h -126.0 a 7 7 0 0 0 -7 7 z" fill="#dce8f1"/>
<circle cx="651.0" cy="2441.0" r="2.4" fill="none" stroke="#33454f" stroke-width="1"/>
<path d="M 646.7 2448.0 a 4.3 4.3 0 0 1 8.6 0" fill="none" stroke="#33454f" stroke-width="1"/>
<text x="710.0" y="2468.7" text-anchor="middle" font-family="Segoe UI, Arial, sans-serif" font-size="10.0" font-weight="normal" fill="#1d2b36">Construir e</text>
<text x="710.0" y="2480.9" text-anchor="middle" font-family="Segoe UI, Arial, sans-serif" font-size="10.0" font-weight="normal" fill="#1d2b36">configurar os</text>
<text x="710.0" y="2493.1" text-anchor="middle" font-family="Segoe UI, Arial, sans-serif" font-size="10.0" font-weight="normal" fill="#1d2b36">componentes</text>
<rect x="830.0" y="2243.0" width="140.0" height="80.0" rx="7" fill="#ffffff" stroke="#41637d" stroke-width="1.5"/>
<path d="M 830.0 2250.0 h 140.0 a 7 7 0 0 0 -7 -7 h -126.0 a 7 7 0 0 0 -7 7 z" fill="#dce8f1"/>
<circle cx="841.0" cy="2251.0" r="2.4" fill="none" stroke="#33454f" stroke-width="1"/>
<path d="M 836.7 2258.0 a 4.3 4.3 0 0 1 8.6 0" fill="none" stroke="#33454f" stroke-width="1"/>
<text x="900.0" y="2278.7" text-anchor="middle" font-family="Segoe UI, Arial, sans-serif" font-size="10.0" font-weight="normal" fill="#1d2b36">Acompanhar a</text>
<text x="900.0" y="2290.9" text-anchor="middle" font-family="Segoe UI, Arial, sans-serif" font-size="10.0" font-weight="normal" fill="#1d2b36">execução e a</text>
<text x="900.0" y="2303.1" text-anchor="middle" font-family="Segoe UI, Arial, sans-serif" font-size="10.0" font-weight="normal" fill="#1d2b36">aderência ao desenho</text>
<rect x="1020.0" y="2433.0" width="140.0" height="80.0" rx="7" fill="#ffffff" stroke="#41637d" stroke-width="1.5"/>
<path d="M 1020.0 2440.0 h 140.0 a 7 7 0 0 0 -7 -7 h -126.0 a 7 7 0 0 0 -7 7 z" fill="#dce8f1"/>
<circle cx="1031.0" cy="2441.0" r="2.4" fill="none" stroke="#33454f" stroke-width="1"/>
<path d="M 1026.7 2448.0 a 4.3 4.3 0 0 1 8.6 0" fill="none" stroke="#33454f" stroke-width="1"/>
<text x="1090.0" y="2468.7" text-anchor="middle" font-family="Segoe UI, Arial, sans-serif" font-size="10.0" font-weight="normal" fill="#1d2b36">Executar testes</text>
<text x="1090.0" y="2480.9" text-anchor="middle" font-family="Segoe UI, Arial, sans-serif" font-size="10.0" font-weight="normal" fill="#1d2b36">integrados e de</text>
<text x="1090.0" y="2493.1" text-anchor="middle" font-family="Segoe UI, Arial, sans-serif" font-size="10.0" font-weight="normal" fill="#1d2b36">segurança</text>
<polygon points="1280.0,2448.0 1305.0,2473.0 1280.0,2498.0 1255.0,2473.0" fill="#fdf3d4" stroke="#b99b2c" stroke-width="1.5"/>
<path d="M 1272.0 2465.0 L 1288.0 2481.0 M 1288.0 2465.0 L 1272.0 2481.0" stroke="#7a6512" stroke-width="2"/>
<text x="1280.5" y="2424.9" text-anchor="middle" font-family="Segoe UI, Arial, sans-serif" font-size="10.0" font-weight="bold" fill="#33454f">Testes aprovados?</text>
<rect x="1400.0" y="2433.0" width="140.0" height="80.0" rx="7" fill="#ffffff" stroke="#41637d" stroke-width="1.5"/>
<path d="M 1400.0 2440.0 h 140.0 a 7 7 0 0 0 -7 -7 h -126.0 a 7 7 0 0 0 -7 7 z" fill="#dce8f1"/>
<circle cx="1411.0" cy="2441.0" r="2.4" fill="none" stroke="#33454f" stroke-width="1"/>
<path d="M 1406.7 2448.0 a 4.3 4.3 0 0 1 8.6 0" fill="none" stroke="#33454f" stroke-width="1"/>
<text x="1470.0" y="2474.8" text-anchor="middle" font-family="Segoe UI, Arial, sans-serif" font-size="10.0" font-weight="normal" fill="#1d2b36">Preparar o release e</text>
<text x="1470.0" y="2487.0" text-anchor="middle" font-family="Segoe UI, Arial, sans-serif" font-size="10.0" font-weight="normal" fill="#1d2b36">a janela de mudança</text>
<rect x="1590.0" y="2243.0" width="140.0" height="80.0" rx="7" fill="#ffffff" stroke="#41637d" stroke-width="1.5"/>
<path d="M 1590.0 2250.0 h 140.0 a 7 7 0 0 0 -7 -7 h -126.0 a 7 7 0 0 0 -7 7 z" fill="#dce8f1"/>
<circle cx="1601.0" cy="2251.0" r="2.4" fill="none" stroke="#33454f" stroke-width="1"/>
<path d="M 1596.7 2258.0 a 4.3 4.3 0 0 1 8.6 0" fill="none" stroke="#33454f" stroke-width="1"/>
<text x="1660.0" y="2278.7" text-anchor="middle" font-family="Segoe UI, Arial, sans-serif" font-size="10.0" font-weight="normal" fill="#1d2b36">Validar a solução e</text>
<text x="1660.0" y="2290.9" text-anchor="middle" font-family="Segoe UI, Arial, sans-serif" font-size="10.0" font-weight="normal" fill="#1d2b36">emitir o aceite</text>
<text x="1660.0" y="2303.1" text-anchor="middle" font-family="Segoe UI, Arial, sans-serif" font-size="10.0" font-weight="normal" fill="#1d2b36">técnico</text>
<rect x="1780.0" y="2243.0" width="140.0" height="80.0" rx="7" fill="#ffffff" stroke="#41637d" stroke-width="1.5"/>
<path d="M 1780.0 2250.0 h 140.0 a 7 7 0 0 0 -7 -7 h -126.0 a 7 7 0 0 0 -7 7 z" fill="#dce8f1"/>
<circle cx="1791.0" cy="2251.0" r="2.4" fill="none" stroke="#33454f" stroke-width="1"/>
<path d="M 1786.7 2258.0 a 4.3 4.3 0 0 1 8.6 0" fill="none" stroke="#33454f" stroke-width="1"/>
<text x="1850.0" y="2278.7" text-anchor="middle" font-family="Segoe UI, Arial, sans-serif" font-size="10.0" font-weight="normal" fill="#1d2b36">Publicar a solução</text>
<text x="1850.0" y="2290.9" text-anchor="middle" font-family="Segoe UI, Arial, sans-serif" font-size="10.0" font-weight="normal" fill="#1d2b36">em produção</text>
<text x="1850.0" y="2303.1" text-anchor="middle" font-family="Segoe UI, Arial, sans-serif" font-size="10.0" font-weight="normal" fill="#1d2b36">(go-live)</text>
<rect x="1970.0" y="2433.0" width="140.0" height="80.0" rx="7" fill="#ffffff" stroke="#41637d" stroke-width="1.5"/>
<path d="M 1970.0 2440.0 h 140.0 a 7 7 0 0 0 -7 -7 h -126.0 a 7 7 0 0 0 -7 7 z" fill="#dce8f1"/>
<circle cx="1981.0" cy="2444.0" r="3.2" fill="none" stroke="#33454f" stroke-width="1"/>
<circle cx="1981.0" cy="2444.0" r="1.1" fill="#33454f"/>
<line x1="1981.0" y1="2439.6" x2="1981.0" y2="2437.8" stroke="#33454f" stroke-width="1" transform="rotate(0 1981.0 2444.0)"/>
<line x1="1981.0" y1="2439.6" x2="1981.0" y2="2437.8" stroke="#33454f" stroke-width="1" transform="rotate(90 1981.0 2444.0)"/>
<line x1="1981.0" y1="2439.6" x2="1981.0" y2="2437.8" stroke="#33454f" stroke-width="1" transform="rotate(180 1981.0 2444.0)"/>
<line x1="1981.0" y1="2439.6" x2="1981.0" y2="2437.8" stroke="#33454f" stroke-width="1" transform="rotate(270 1981.0 2444.0)"/>
<text x="2040.0" y="2468.7" text-anchor="middle" font-family="Segoe UI, Arial, sans-serif" font-size="10.0" font-weight="normal" fill="#1d2b36">Monitorar o go-live</text>
<text x="2040.0" y="2480.9" text-anchor="middle" font-family="Segoe UI, Arial, sans-serif" font-size="10.0" font-weight="normal" fill="#1d2b36">e ativar a</text>
<text x="2040.0" y="2493.1" text-anchor="middle" font-family="Segoe UI, Arial, sans-serif" font-size="10.0" font-weight="normal" fill="#1d2b36">sustentação</text>
<rect x="2160.0" y="1863.0" width="140.0" height="80.0" rx="7" fill="#ffffff" stroke="#41637d" stroke-width="1.5"/>
<path d="M 2160.0 1870.0 h 140.0 a 7 7 0 0 0 -7 -7 h -126.0 a 7 7 0 0 0 -7 7 z" fill="#dce8f1"/>
<circle cx="2171.0" cy="1871.0" r="2.4" fill="none" stroke="#33454f" stroke-width="1"/>
<path d="M 2166.7 1878.0 a 4.3 4.3 0 0 1 8.6 0" fill="none" stroke="#33454f" stroke-width="1"/>
<text x="2230.0" y="1898.7" text-anchor="middle" font-family="Segoe UI, Arial, sans-serif" font-size="10.0" font-weight="normal" fill="#1d2b36">Homologar a entrega</text>
<text x="2230.0" y="1910.9" text-anchor="middle" font-family="Segoe UI, Arial, sans-serif" font-size="10.0" font-weight="normal" fill="#1d2b36">e validar os</text>
<text x="2230.0" y="1923.1" text-anchor="middle" font-family="Segoe UI, Arial, sans-serif" font-size="10.0" font-weight="normal" fill="#1d2b36">benefícios</text>
<polygon points="2420.0,1878.0 2445.0,1903.0 2420.0,1928.0 2395.0,1903.0" fill="#fdf3d4" stroke="#b99b2c" stroke-width="1.5"/>
<path d="M 2412.0 1895.0 L 2428.0 1911.0 M 2428.0 1895.0 L 2412.0 1911.0" stroke="#7a6512" stroke-width="2"/>
<text x="2419.5" y="1948.9" text-anchor="middle" font-family="Segoe UI, Arial, sans-serif" font-size="10.0" font-weight="bold" fill="#33454f">Entrega homologada?</text>
<rect x="2540.0" y="2243.0" width="140.0" height="80.0" rx="7" fill="#ffffff" stroke="#41637d" stroke-width="1.5"/>
<path d="M 2540.0 2250.0 h 140.0 a 7 7 0 0 0 -7 -7 h -126.0 a 7 7 0 0 0 -7 7 z" fill="#dce8f1"/>
<circle cx="2551.0" cy="2251.0" r="2.4" fill="none" stroke="#33454f" stroke-width="1"/>
<path d="M 2546.7 2258.0 a 4.3 4.3 0 0 1 8.6 0" fill="none" stroke="#33454f" stroke-width="1"/>
<text x="2610.0" y="2278.7" text-anchor="middle" font-family="Segoe UI, Arial, sans-serif" font-size="10.0" font-weight="normal" fill="#1d2b36">Documentar no</text>
<text x="2610.0" y="2290.9" text-anchor="middle" font-family="Segoe UI, Arial, sans-serif" font-size="10.0" font-weight="normal" fill="#1d2b36">repositório de</text>
<text x="2610.0" y="2303.1" text-anchor="middle" font-family="Segoe UI, Arial, sans-serif" font-size="10.0" font-weight="normal" fill="#1d2b36">arquitetura</text>
<rect x="2730.0" y="2053.0" width="140.0" height="80.0" rx="7" fill="#ffffff" stroke="#41637d" stroke-width="1.5"/>
<path d="M 2730.0 2060.0 h 140.0 a 7 7 0 0 0 -7 -7 h -126.0 a 7 7 0 0 0 -7 7 z" fill="#dce8f1"/>
<circle cx="2741.0" cy="2061.0" r="2.4" fill="none" stroke="#33454f" stroke-width="1"/>
<path d="M 2736.7 2068.0 a 4.3 4.3 0 0 1 8.6 0" fill="none" stroke="#33454f" stroke-width="1"/>
<text x="2800.0" y="2094.8" text-anchor="middle" font-family="Segoe UI, Arial, sans-serif" font-size="10.0" font-weight="normal" fill="#1d2b36">Encerrar e registrar</text>
<text x="2800.0" y="2107.0" text-anchor="middle" font-family="Segoe UI, Arial, sans-serif" font-size="10.0" font-weight="normal" fill="#1d2b36">lições aprendidas</text>
<circle cx="2990.0" cy="2093.0" r="18.0" fill="#fbe6e6" stroke="#b03535" stroke-width="3.5"/>
<text x="2990.0" y="2052.3" text-anchor="middle" font-family="Segoe UI, Arial, sans-serif" font-size="10.0" font-weight="bold" fill="#33454f">Demanda entregue e</text>
<text x="2990.0" y="2064.5" text-anchor="middle" font-family="Segoe UI, Arial, sans-serif" font-size="10.0" font-weight="bold" fill="#33454f">encerrada</text>
<circle cx="49.0" cy="2592.0" r="7" fill="#e6f4e6" stroke="#3f8f3f" stroke-width="1.6"/>
<text x="64.0" y="2596.0" font-family="Segoe UI, Arial, sans-serif" font-size="11.5" fill="#5b6b78">início</text>
<circle cx="121.4" cy="2592.0" r="7" fill="#fbe6e6" stroke="#b03535" stroke-width="1.6"/>
<text x="136.4" y="2596.0" font-family="Segoe UI, Arial, sans-serif" font-size="11.5" fill="#5b6b78">fim</text>
<polygon points="174.6,2585.0 182.6,2592.0 174.6,2599.0 166.6,2592.0" fill="#fdf3d4" stroke="#b99b2c" stroke-width="1.4"/>
<text x="189.6" y="2596.0" font-family="Segoe UI, Arial, sans-serif" font-size="11.5" fill="#5b6b78">decisão (gateway exclusivo)</text>
<rect x="373.4" y="2586.0" width="18" height="12" rx="3" fill="#ffffff" stroke="#41637d" stroke-width="1.4"/>
<text x="396.4" y="2596.0" font-family="Segoe UI, Arial, sans-serif" font-size="11.5" fill="#5b6b78">atividade</text>
<circle cx="473.0" cy="2592.0" r="7" fill="#eae6f6" stroke="#6a54a8" stroke-width="1.6"/>
<text x="488.0" y="2596.0" font-family="Segoe UI, Arial, sans-serif" font-size="11.5" fill="#5b6b78">evento de link (continuação entre faixas)</text>
</svg>